<svg xmlns="http://www.w3.org/2000/svg" aria-hidden="true">
  <defs>
    <symbol id="ig" viewBox="0 0 24 24">
      <rect x="2.5" y="2.5" width="19" height="19" rx="5.5" ry="5.5" fill="none" stroke="currentColor" stroke-width="2"/>
      <circle cx="12" cy="12" r="4.5" fill="none" stroke="currentColor" stroke-width="2"/>
      <circle cx="17.2" cy="6.8" r="1.2" fill="currentColor"/>
    </symbol>
    <symbol id="tk" viewBox="0 0 24 24">
      <path d="M14.2 3h2.4c.1 1.6 1.3 3 2.9 3.3v2.5c-1 .1-2-.1-2.9-.6v6.8c0 2.9-2.4 5.2-5.2 5.2S6.2 17.9 6.2 15s2.3-5.2 5.2-5.2c.4 0 .9.1 1.3.2v2.6c-.4-.2-.8-.3-1.3-.3-1.4 0-2.5 1.1-2.5 2.5s1.1 2.5 2.5 2.5 2.5-1.1 2.5-2.5z" fill="currentColor"/>
    </symbol>
    <symbol id="fb" viewBox="0 0 24 24">
      <path
        d="M15.9 2.6h-2.1c-3.3 0-5.3 2.1-5.3 5.7V11H6v4h2.5v9h4.1v-9h3.4l.6-4h-4v-2.2c0-1.2.4-1.8 1.8-1.8h2.5z"
        fill="currentColor"
        fill-rule="evenodd"
        clip-rule="evenodd"
      />
    </symbol>
    <symbol id="gpt" viewBox="0 0 24 24" fill="currentColor" aria-hidden="true">
      <title>ChatGPT</title>
      <path d="M22.2819 9.8211a5.9847 5.9847 0 0 0-.5157-4.9108 6.0462 6.0462 0 0 0-6.5098-2.9A6.0651 6.0651 0 0 0 4.9807 4.1818a5.9847 5.9847 0 0 0-3.9977 2.9 6.0462 6.0462 0 0 0 .7427 7.0966 5.98 5.98 0 0 0 .511 4.9107 6.051 6.051 0 0 0 6.5146 2.9001A5.9847 5.9847 0 0 0 13.2599 24a6.0557 6.0557 0 0 0 5.7718-4.2058 5.9894 5.9894 0 0 0 3.9977-2.9001 6.0557 6.0557 0 0 0-.7475-7.0729zm-9.022 12.6081a4.4755 4.4755 0 0 1-2.8764-1.0408l.1419-.0804 4.7783-2.7582a.7948.7948 0 0 0 .3927-.6813v-6.7369l2.02 1.1686a.071.071 0 0 1 .038.052v5.5826a4.504 4.504 0 0 1-4.4945 4.4944zm-9.6607-4.1254a4.4708 4.4708 0 0 1-.5346-3.0137l.142.0852 4.783 2.7582a.7712.7712 0 0 0 .7806 0l5.8428-3.3685v2.3324a.0804.0804 0 0 1-.0332.0615L9.74 19.9502a4.4992 4.4992 0 0 1-6.1408-1.6464zM2.3408 7.8956a4.485 4.485 0 0 1 2.3655-1.9728V11.6a.7664.7664 0 0 0 .3879.6765l5.8144 3.3543-2.0201 1.1685a.0757.0757 0 0 1-.071 0l-4.8303-2.7865A4.504 4.504 0 0 1 2.3408 7.872zm16.5963 3.8558L13.1038 8.364 15.1192 7.2a.0757.0757 0 0 1 .071 0l4.8303 2.7913a4.4944 4.4944 0 0 1-.6765 8.1042v-5.6772a.79.79 0 0 0-.407-.667zm2.0107-3.0231l-.142-.0852-4.7735-2.7818a.7759.7759 0 0 0-.7854 0L9.409 9.2297V6.8974a.0662.0662 0 0 1 .0284-.0615l4.8303-2.7866a4.4992 4.4992 0 0 1 6.6802 4.66zM8.3065 12.863l-2.02-1.1638a.0804.0804 0 0 1-.038-.0567V6.0742a4.4992 4.4992 0 0 1 7.3757-3.4537l-.142.0805L8.704 5.459a.7948.7948 0 0 0-.3927.6813zm1.0976-2.3654l2.602-1.4998 2.6069 1.4998v2.9994l-2.5974 1.4997-2.6067-1.4997Z"/>
    </symbol>
    <symbol id="x" viewBox="0 0 24 24">
      <path
        d="M3 2h4.9l3.9 5.5L16 2h5l-7.8 8.7L22 22h-5l-4.2-5.8L7.9 22H3l8-8.7L3 2Zm3.6 1.6H9l3.4 4.8 4.2-4.8H19l-6.5 7.3 6.5 8.5h-2.4l-3.9-5.2-4.8 5.2H5.5l5.9-6.5-6.3-8.7Z"
        fill="currentColor"
        fill-rule="evenodd"
        clip-rule="evenodd"
      />
    </symbol>
    <symbol id="yt" viewBox="0 0 24 24">
      <path d="M21.7 7.3a2.5 2.5 0 00-1.7-1.8C18.3 5 12 5 12 5S5.7 5 4 5.5A2.5 2.5 0 002.3 7.3 26 26 0 002 12a26 26 0 00.3 4.7 2.5 2.5 0 001.7 1.8C5.7 19 12 19 12 19s6.3 0 7.9-.5a2.5 2.5 0 001.7-1.8A26 26 0 0022 12a26 26 0 00-.3-4.7zM10 9.8l5.6 2.2L10 14.2V9.8z" fill="currentColor" fill-rule="evenodd" clip-rule="evenodd"/>
    </symbol>
    <symbol id="am" viewBox="0 0 24 24">
      <g transform="translate(0.48 0.48) scale(0.65052)">
        <path
          d="M20.948 9.891c-.857.068-1.847.136-2.837.269-1.516.195-3.032.461-4.284 1.053-2.439.994-4.088 3.105-4.088 6.209 0 3.898 2.506 5.875 5.669 5.875 1.057 0 1.913-.129 2.703-.328 1.255-.396 2.31-1.123 3.562-2.441.727.99.923 1.453 2.177 2.509.329.133.658.133.922-.066.791-.659 2.174-1.848 2.901-2.508.328-.267.263-.66.066-.992-.727-.924-1.45-1.718-1.45-3.498v-5.943c0-2.513.195-4.822-1.647-6.537-1.518-1.391-3.891-1.916-5.735-1.916-.264 0-.527 0-.792 0-3.362.197-6.921 1.647-7.714 5.811-.13.525.267.726.53.793l3.691.464c.396-.07.593-.398.658-.73.333-1.449 1.518-2.176 2.836-2.309.067 0 .133 0 .265 0 .79 0 1.646.332 2.109.987.523.795.461 1.853.461 2.775zm-.725 7.858c-.461.925-1.253 1.519-2.11 1.718-.131 0-.327.068-.526.068-1.45 0-2.31-1.123-2.31-2.775 0-2.11 1.254-3.104 2.836-3.565.857-.197 1.847-.265 2.836-.265v.793c-.001 1.489.061 2.676-.737 3.996zM35.418 26.918v.215c-.035 1.291-.716 3.768-2.328 5.131-.322.25-.645.107-.503-.254.469-1.145 1.541-3.803 1.04-4.412-.355-.465-1.826-.43-3.079-.322-.572.072-1.075.105-1.469.183-.357.033-.431-.287-.071-.537.466-.323.969-.573 1.541-.756 2.039-.608 4.406-.25 4.729.146.091.202.161.417.161.706zm-3.402 2.51c-.466.357-.965.682-1.468.973-3.761 2.261-8.631 3.441-12.856 3.441-6.807 0-12.895-2.512-17.514-6.709-.396-.324-.073-.789.393-.539 4.986 3.006 11.146 4.766 17.521 4.766 4.013 0 8.342-.754 12.463-2.371.285-.104.608-.252.895-.356.129-.291.703.432.058.895z"
          fill="currentColor"
        />
      </g>
    </symbol>
  </defs>
</svg>
