<svg xmlns="http://www.w3.org/2000/svg" aria-hidden="true">
  <defs>
    <symbol id="ig" viewBox="0 0 24 24">
      <path d="M7 2h10a5 5 0 015 5v10a5 5 0 01-5 5H7a5 5 0 01-5-5V7a5 5 0 015-5zm5 5.2a4.8 4.8 0 100 9.6 4.8 4.8 0 000-9.6zm0 2.4a2.4 2.4 0 110 4.8 2.4 2.4 0 010-4.8zm6.3-3.9a1.3 1.3 0 11-2.6 0 1.3 1.3 0 012.6 0z" fill="currentColor" fill-rule="evenodd" clip-rule="evenodd"/>
    </symbol>
    <symbol id="tk" viewBox="0 0 24 24">
      <path d="M12.5 3h2.1a5.8 5.8 0 003.5 3.2v2.4a6.8 6.8 0 01-3.5-1v7.1a5.1 5.1 0 11-5.1-5.1c.5 0 1 .1 1.5.3v2.5a2.2 2.2 0 00-1.1-.3 2.2 2.2 0 102.2 2.2V3z" fill="currentColor" fill-rule="evenodd" clip-rule="evenodd"/>
    </symbol>
    <symbol id="fb" viewBox="0 0 24 24">
      <path d="M15.6 3H19v3.6h-2.3c-.5 0-.7.2-.7.7v2.5h3.1V13h-3.1v8h-3.8v-8H9.7V9.8h2.5V7.5C12.2 4.9 13.7 3 15.6 3z" fill="currentColor"/>
    </symbol>
    <symbol id="x" viewBox="0 0 24 24">
      <path d="M3.5 3h3.6l4.4 6.3L16.1 3H20l-6.4 8.5L20.5 21h-3.6l-4.9-6.8L6.9 21H3l6.6-8.8L3.5 3z" fill="currentColor" fill-rule="evenodd" clip-rule="evenodd"/>
    </symbol>
    <symbol id="yt" viewBox="0 0 24 24">
      <path d="M21.7 7.3a2.5 2.5 0 00-1.7-1.8C18.3 5 12 5 12 5S5.7 5 4 5.5A2.5 2.5 0 002.3 7.3 26 26 0 002 12a26 26 0 00.3 4.7 2.5 2.5 0 001.7 1.8C5.7 19 12 19 12 19s6.3 0 7.9-.5a2.5 2.5 0 001.7-1.8A26 26 0 0022 12a26 26 0 00-.3-4.7zM10 9.8l5.6 2.2L10 14.2V9.8z" fill="currentColor" fill-rule="evenodd" clip-rule="evenodd"/>
    </symbol>
    <symbol id="am" viewBox="0 0 24 24">
      <path d="M12 3c2.6 0 4.7 1.7 4.7 4.6V15h-3v-1.3c-.6.9-1.5 1.6-2.8 1.6a3.8 3.8 0 010-7.6c.9 0 1.7.3 2.3.7V7.4c0-1.4-.8-2.2-2-2.2-.9 0-1.8.5-2.8 1.2l-1-2A6.7 6.7 0 0112 3z" fill="currentColor"/>
      <path d="M4.8 16.2c2.2 1.7 5 2.8 7.7 2.8s5.5-1 7.7-2.8l.8 1.8a15 15 0 01-9 .9 15 15 0 01-8.5-2.7z" fill="currentColor"/>
      <path d="M16.8 15.5l3.2 1-1 3.2" fill="none" stroke="currentColor" stroke-width="1.8" stroke-linecap="round" stroke-linejoin="round"/>
    </symbol>
  </defs>
</svg>
