<svg xmlns="http://www.w3.org/2000/svg" aria-hidden="true">
  <defs>
    <symbol id="ig" viewBox="0 0 24 24">
      <rect x="2.5" y="2.5" width="19" height="19" rx="5.5" ry="5.5" fill="none" stroke="currentColor" stroke-width="2"/>
      <circle cx="12" cy="12" r="4.5" fill="none" stroke="currentColor" stroke-width="2"/>
      <circle cx="17.2" cy="6.8" r="1.2" fill="currentColor"/>
    </symbol>
    <symbol id="tk" viewBox="0 0 24 24">
      <path d="M12.5 3h2.1a5.8 5.8 0 003.5 3.2v2.4a6.8 6.8 0 01-3.5-1v7.1a5.1 5.1 0 11-5.1-5.1c.5 0 1 .1 1.5.3v2.5a2.2 2.2 0 00-1.1-.3 2.2 2.2 0 102.2 2.2V3z" fill="currentColor" fill-rule="evenodd" clip-rule="evenodd"/>
    </symbol>
    <symbol id="fb" viewBox="0 0 24 24">
      <path
        d="M15.9 2.6h-2.1c-3.3 0-5.3 2.1-5.3 5.7V11H6v4h2.5v9h4.1v-9h3.4l.6-4h-4v-2.2c0-1.2.4-1.8 1.8-1.8h2.5z"
        fill="currentColor"
        fill-rule="evenodd"
        clip-rule="evenodd"
      />
    </symbol>
    <symbol id="x" viewBox="0 0 24 24">
      <path
        d="M3 2h4.9l3.9 5.5L16 2h5l-7.8 8.7L22 22h-5l-4.2-5.8L7.9 22H3l8-8.7L3 2Zm3.6 1.6H9l3.4 4.8 4.2-4.8H19l-6.5 7.3 6.5 8.5h-2.4l-3.9-5.2-4.8 5.2H5.5l5.9-6.5-6.3-8.7Z"
        fill="currentColor"
        fill-rule="evenodd"
        clip-rule="evenodd"
      />
    </symbol>
    <symbol id="yt" viewBox="0 0 24 24">
      <path d="M21.7 7.3a2.5 2.5 0 00-1.7-1.8C18.3 5 12 5 12 5S5.7 5 4 5.5A2.5 2.5 0 002.3 7.3 26 26 0 002 12a26 26 0 00.3 4.7 2.5 2.5 0 001.7 1.8C5.7 19 12 19 12 19s6.3 0 7.9-.5a2.5 2.5 0 001.7-1.8A26 26 0 0022 12a26 26 0 00-.3-4.7zM10 9.8l5.6 2.2L10 14.2V9.8z" fill="currentColor" fill-rule="evenodd" clip-rule="evenodd"/>
    </symbol>
    <symbol id="am" viewBox="0 0 24 24">
      <path
        d="M15.4 9.7c0-2.3-1.5-3.6-3.6-3.6-1.6 0-2.8.6-3.6 1.7l1.4 1.4c.6-.7 1.2-1.1 1.9-1.1 1 0 1.6.6 1.6 1.7v.6h-.5c-2.9 0-4.7 1.1-4.7 3.1 0 1.6 1.2 2.7 2.8 2.7 1.1 0 2-.4 2.6-1.1v1h2.5zm-2.6 3.9c-.4.7-.9 1-1.5 1s-1-.4-1-.9c0-.9 1-1.3 2.5-1.3h.1z"
        fill="currentColor"
        fill-rule="evenodd"
        clip-rule="evenodd"
      />
      <path
        d="M4.1 16.9c2.3 1.8 5.2 2.8 8.5 2.8 2.5 0 4.8-.5 6.8-1.6"
        fill="none"
        stroke="currentColor"
        stroke-width="1.6"
        stroke-linecap="round"
      />
      <path
        d="M17.8 18.1l3 .8-.8 3"
        fill="none"
        stroke="currentColor"
        stroke-width="1.6"
        stroke-linecap="round"
        stroke-linejoin="round"
      />
    </symbol>
  </defs>
</svg>
