<svg xmlns="http://www.w3.org/2000/svg" aria-hidden="true">
  <defs>
    <symbol id="ig" viewBox="0 0 24 24">
      <rect x="2.25" y="2.25" width="19.5" height="19.5" rx="5.5" ry="5.5" fill="none" stroke="currentColor" stroke-width="1.8"/>
      <circle cx="12" cy="12" r="5.2" fill="none" stroke="currentColor" stroke-width="1.8"/>
      <circle cx="17" cy="7" r="1.35" fill="currentColor"/>
    </symbol>
    <symbol id="tk" viewBox="0 0 24 24">
      <path d="M15.3 3h2.5a4.9 4.9 0 002.9 2.7v2.7a6.7 6.7 0 01-3.1-.9v6.8a5 5 0 11-5-5c.5 0 1 .1 1.5.3V12a2.3 2.3 0 00-1.5-.5 2.5 2.5 0 102.5 2.5V3z" fill="currentColor" fill-rule="evenodd" clip-rule="evenodd"/>
    </symbol>
    <symbol id="fb" viewBox="0 0 24 24">
      <path d="M14.7 3h3.1v3.4h-2.6c-.6 0-1 .5-1 1v2.6h3.5v3.3h-3.5V21h-3.6v-7.7H8.7V9.4h2.9V7.3C11.6 4.8 12.9 3 14.7 3z" fill="currentColor"/>
    </symbol>
    <symbol id="x" viewBox="0 0 24 24">
      <path d="M5 4.6l14 14.8" fill="none" stroke="currentColor" stroke-width="1.9" stroke-linecap="round"/>
      <path d="M19 4.6L5 19.4" fill="none" stroke="currentColor" stroke-width="1.9" stroke-linecap="round"/>
    </symbol>
    <symbol id="yt" viewBox="0 0 24 24">
      <rect x="2.4" y="6.3" width="19.2" height="11.4" rx="5" ry="5" fill="none" stroke="currentColor" stroke-width="1.8"/>
      <path d="M10.4 9.3l4.8 2.7-4.8 2.7z" fill="currentColor"/>
    </symbol>
    <symbol id="am" viewBox="0 0 24 24">
      <path d="M11.8 4.3c2 0 3.9 1.4 3.9 4.1V15h-2.4v-1.3c-.5.9-1.4 1.6-2.7 1.6a3.7 3.7 0 010-7.4c.8 0 1.6.3 2.1.7V8.4c0-1.3-.7-2-1.8-2-1 0-1.9.4-2.7 1.1l-.9-2a6 6 0 013.5-1.2z" fill="currentColor"/>
      <path d="M4.6 15.9c2.1 1.6 4.8 2.6 7.4 2.6s5.3-1 7.4-2.6" fill="none" stroke="currentColor" stroke-width="1.7" stroke-linecap="round" stroke-linejoin="round"/>
      <path d="M16.4 15.3l3 .9-1 2.9" fill="none" stroke="currentColor" stroke-width="1.7" stroke-linecap="round" stroke-linejoin="round"/>
    </symbol>
  </defs>
</svg>
