<svg xmlns="http://www.w3.org/2000/svg" aria-hidden="true">
  <symbol id="ig" viewBox="0 0 24 24">
    <rect x="3.1" y="3.1" width="17.8" height="17.8" rx="5.2" fill="none" stroke="currentColor" stroke-width="1.8" stroke-linecap="round" stroke-linejoin="round"/>
    <circle cx="12" cy="12" r="4.3" fill="none" stroke="currentColor" stroke-width="1.8" stroke-linecap="round" stroke-linejoin="round"/>
    <circle cx="17.3" cy="6.7" r="1.2" fill="currentColor"/>
  </symbol>
  <symbol id="tt" viewBox="0 0 24 24">
    <path d="M14.6 3h2.8v5.43a6.03 6.03 0 01-2.8-1.12V15a4.94 4.94 0 11-4.94-4.94c.5 0 .98.07 1.43.22v2.32a2.62 2.62 0 10.2 5.22 2.62 2.62 0 002.09-2.55V5h1.58a5.97 5.97 0 002.84 2.05v2.05a7.9 7.9 0 01-2.84-1.02V3z" fill="currentColor"/>
  </symbol>
  <symbol id="fb" viewBox="0 0 24 24">
    <path fill-rule="evenodd" clip-rule="evenodd" d="M12 2.1c-5.46 0-9.9 4.44-9.9 9.9s4.44 9.9 9.9 9.9 9.9-4.44 9.9-9.9S17.46 2.1 12 2.1ZM10.26 6h5.22v2.1h-2.88v2.76h2.34v2.1h-2.34V18h-2.34V6Z" fill="currentColor"/>
  </symbol>
  <symbol id="x" viewBox="0 0 24 24">
    <path d="M6 4.2l12 15.6M18 4.2L6 19.8" fill="none" stroke="currentColor" stroke-width="1.8" stroke-linecap="round" stroke-linejoin="round"/>
  </symbol>
  <symbol id="yt" viewBox="0 0 24 24">
    <path d="M5.3 6.2C3.9 6.4 3 7.6 3 9.1v5.8c0 1.5.9 2.7 2.3 2.9 2.4.4 8.4.4 11.4 0 1.4-.2 2.3-1.4 2.3-2.9V9.1c0-1.5-.9-2.7-2.3-2.9-3-.4-9-.4-11.4 0ZM10.2 9.3l4.9 2.7-4.9 2.7V9.3Z" fill-rule="evenodd" clip-rule="evenodd" fill="currentColor"/>
  </symbol>
  <symbol id="amz" viewBox="0 0 24 24">
    <path d="M11.9 5.4c2.34 0 4.1 1.68 4.1 4.26v5.34h-2.16v-1.08c-.6.78-1.62 1.26-2.82 1.26-2.1 0-3.72-1.5-3.72-3.9s1.62-3.9 3.72-3.9c1.14 0 2.07.42 2.67 1.17v-.15c0-1.2-.87-2.01-2.13-2.01-1.02 0-1.83.57-2.13 1.47H7.8c.42-2.13 2.28-3.45 4.1-3.45Zm-.36 5.13c-1.11 0-1.92.75-1.92 1.98s.81 1.98 1.92 1.98c.87 0 1.53-.39 1.89-.99v-1.98c-.36-.6-1.02-.99-1.89-.99Z" fill="currentColor"/>
    <path d="M5.2 17.4A8.4 8.4 0 0018.8 17.4" fill="none" stroke="currentColor" stroke-width="1.8" stroke-linecap="round" stroke-linejoin="round"/>
    <path d="M18.6 17.3l2 .9-1.5 1.8" fill="none" stroke="currentColor" stroke-width="1.8" stroke-linecap="round" stroke-linejoin="round"/>
  </symbol>
</svg>
