<svg xmlns="http://www.w3.org/2000/svg" aria-hidden="true">
  <defs>
    <symbol id="ig" viewBox="0 0 24 24">
      <rect x="2.5" y="2.5" width="19" height="19" rx="5.5" ry="5.5" fill="none" stroke="currentColor" stroke-width="2"/>
      <circle cx="12" cy="12" r="4.5" fill="none" stroke="currentColor" stroke-width="2"/>
      <circle cx="17.2" cy="6.8" r="1.2" fill="currentColor"/>
    </symbol>
    <symbol id="tk" viewBox="0 0 24 24">
      <path d="M14.2 3h2.4c.1 1.6 1.3 3 2.9 3.3v2.5c-1 .1-2-.1-2.9-.6v6.8c0 2.9-2.4 5.2-5.2 5.2S6.2 17.9 6.2 15s2.3-5.2 5.2-5.2c.4 0 .9.1 1.3.2v2.6c-.4-.2-.8-.3-1.3-.3-1.4 0-2.5 1.1-2.5 2.5s1.1 2.5 2.5 2.5 2.5-1.1 2.5-2.5z" fill="currentColor"/>
    </symbol>
    <symbol id="fb" viewBox="0 0 24 24">
      <path
        d="M15.9 2.6h-2.1c-3.3 0-5.3 2.1-5.3 5.7V11H6v4h2.5v9h4.1v-9h3.4l.6-4h-4v-2.2c0-1.2.4-1.8 1.8-1.8h2.5z"
        fill="currentColor"
        fill-rule="evenodd"
        clip-rule="evenodd"
      />
    </symbol>
    <symbol id="x" viewBox="0 0 24 24">
      <path
        d="M3 2h4.9l3.9 5.5L16 2h5l-7.8 8.7L22 22h-5l-4.2-5.8L7.9 22H3l8-8.7L3 2Zm3.6 1.6H9l3.4 4.8 4.2-4.8H19l-6.5 7.3 6.5 8.5h-2.4l-3.9-5.2-4.8 5.2H5.5l5.9-6.5-6.3-8.7Z"
        fill="currentColor"
        fill-rule="evenodd"
        clip-rule="evenodd"
      />
    </symbol>
    <symbol id="yt" viewBox="0 0 24 24">
      <path d="M21.7 7.3a2.5 2.5 0 00-1.7-1.8C18.3 5 12 5 12 5S5.7 5 4 5.5A2.5 2.5 0 002.3 7.3 26 26 0 002 12a26 26 0 00.3 4.7 2.5 2.5 0 001.7 1.8C5.7 19 12 19 12 19s6.3 0 7.9-.5a2.5 2.5 0 001.7-1.8A26 26 0 0022 12a26 26 0 00-.3-4.7zM10 9.8l5.6 2.2L10 14.2V9.8z" fill="currentColor" fill-rule="evenodd" clip-rule="evenodd"/>
    </symbol>
    <symbol id="am" viewBox="0 0 24 24">
      <path
        d="M16 7.4c0-3-2-5-5-5-2.4 0-4.5 1.4-5.6 3.8l2.1.9c.5-1.4 1.6-2.2 3.1-2.2 1.7 0 2.8 1.1 2.8 3v1.3h-.4C8.6 9.2 5.6 10.8 5.6 14c0 2.6 1.9 4.3 4.5 4.3 1.6 0 3-.7 3.9-2.1v1.8h2zM13 14c-.7 1.1-1.6 1.6-2.8 1.6-1.4 0-2.3-.9-2.3-2.1 0-2 2.2-2.9 5.3-2.9H13z"
        fill="currentColor"
      />
      <path
        d="M3.8 18.7c3.3 2.2 6.9 3.2 10.6 3.2 3.2 0 6.4-.6 9.3-1.9.5-.2.8.3.5.7-1 1.3-2 2.2-3.1 2.9-.3.2-.6 0-.5-.3l.3-1.2c-1.4.6-2.8 1-4.3 1.2-4.8.8-9.3.1-13.4-2.4-.4-.2-.3-.8.1-1Z"
        fill="currentColor"
      />
      <path
        d="M23 19.7l1.9.5-.5 1.9c-.1.4-.5.4-.7.1l-1.1-1.6c-.2-.3 0-.7.4-.9z"
        fill="currentColor"
      />
    </symbol>
  </defs>
</svg>
