<svg xmlns="http://www.w3.org/2000/svg" aria-hidden="true">
  <symbol id="ig" viewBox="0 0 24 24">
    <rect x="2" y="2" width="20" height="20" rx="5" ry="5" fill="none" stroke="currentColor" stroke-width="2"/>
    <circle cx="12" cy="12" r="5" fill="none" stroke="currentColor" stroke-width="2"/>
    <circle cx="17.5" cy="6.5" r="1.5"/>
  </symbol>
  <symbol id="tt" viewBox="0 0 24 24">
    <path d="M15.5 3h2v6.2c-1.1-.5-2.1-1.2-3-2V15a4.1 4.1 0 01-4.2 4.2 4.1 4.1 0 01-4.2-4.2 4.1 4.1 0 012.8-3.9V13a1.4 1.4 0 00-.7 1.2 1.4 1.4 0 001.4 1.4 1.4 1.4 0 001.4-1.4V5h2.8a6 6 0 002.7 2.1z"/>
  </symbol>
  <symbol id="fb" viewBox="0 0 24 24">
    <path d="M14 3h3v3h-3a1 1 0 00-1 1v2h4v3h-4v9h-3v-9H8V9h2V7.2C10 5 11.8 3 14 3z"/>
  </symbol>
  <symbol id="x" viewBox="0 0 24 24">
    <path d="M4 4l6.9 7.5L4 20h3.7l4.4-5.6L16.5 20H20l-6.9-7.5L20 4h-3.7l-4.4 5.6L7.5 4z"/>
  </symbol>
  <symbol id="yt" viewBox="0 0 24 24">
    <path d="M21.6 7.2a2.4 2.4 0 00-1.7-1.7C18.3 5 12 5 12 5S5.7 5 4.1 5.5a2.4 2.4 0 00-1.7 1.7C2 8.8 2 12 2 12s0 3.2.4 4.8a2.4 2.4 0 001.7 1.7c1.6.5 7.9.5 7.9.5s6.3 0 7.9-.5a2.4 2.4 0 001.7-1.7c.4-1.6.4-4.8.4-4.8s0-3.2-.4-4.8zM10 9.5l5.2 2.5L10 14.5z"/>
  </symbol>
  <symbol id="amz" viewBox="0 0 24 24">
    <path d="M4 16.2c2.1 1.6 5 2.6 8 2.6s5.9-1 8-2.6l-.8-1.2c-1.9 1.3-4.4 2.1-7.2 2.1s-5.3-.8-7.2-2.1l-.8 1.2z"/>
    <path d="M15.4 6.5h1.9l-1.9-4h-2.3l1.5 4z"/>
    <path d="M17.8 12.5l2.1-.4-2.1-2.1-.4 1.9.4.6z"/>
  </symbol>
</svg>
