<svg xmlns="http://www.w3.org/2000/svg" viewBox="0 0 640 768" role="img" aria-labelledby="title desc">
  <title id="title">The Tank Guide University Articles</title>
  <desc id="desc">Illustrated book cover featuring gold and teal gradients with a pillar motif.</desc>
  <defs>
    <linearGradient id="coverGradient" x1="0%" y1="0%" x2="100%" y2="100%">
      <stop offset="0%" stop-color="#1b3557" />
      <stop offset="55%" stop-color="#1a6f84" />
      <stop offset="100%" stop-color="#0b3d4f" />
    </linearGradient>
    <linearGradient id="spineGradient" x1="0%" y1="0%" x2="0%" y2="100%">
      <stop offset="0%" stop-color="#f8d17a" />
      <stop offset="100%" stop-color="#d2942f" />
    </linearGradient>
    <linearGradient id="ribbonGradient" x1="0%" y1="0%" x2="0%" y2="100%">
      <stop offset="0%" stop-color="#f9e7c7" />
      <stop offset="100%" stop-color="#ddb16a" />
    </linearGradient>
    <linearGradient id="glowGradient" x1="0%" y1="0%" x2="0%" y2="100%">
      <stop offset="0%" stop-color="rgba(255,255,255,0.65)" />
      <stop offset="80%" stop-color="rgba(255,255,255,0)" />
    </linearGradient>
  </defs>
  <rect x="0" y="0" width="640" height="768" rx="42" fill="url(#coverGradient)" />
  <rect x="42" y="0" width="72" height="768" rx="34" fill="url(#spineGradient)" />
  <rect x="88" y="0" width="18" height="768" fill="rgba(0,0,0,0.15)" />
  <g opacity="0.45" fill="none" stroke="#f6e8ca" stroke-width="8" stroke-linecap="round">
    <path d="M210 176h220" />
    <path d="M210 280h220" />
    <path d="M210 384h220" />
  </g>
  <g fill="#f7dca7" opacity="0.85">
    <rect x="210" y="456" width="72" height="144" rx="12" />
    <rect x="296" y="416" width="72" height="224" rx="12" />
    <rect x="382" y="456" width="72" height="144" rx="12" />
  </g>
  <g fill="#fef8e7" opacity="0.85">
    <rect x="228" y="470" width="36" height="116" rx="8" />
    <rect x="314" y="432" width="36" height="192" rx="8" />
    <rect x="400" y="470" width="36" height="116" rx="8" />
  </g>
  <path d="M212 572h216" stroke="#f9eacb" stroke-width="10" stroke-linecap="round" opacity="0.65" />
  <path d="M212 600h216" stroke="#f9eacb" stroke-width="10" stroke-linecap="round" opacity="0.45" />
  <g fill="#fef8e7" font-family="'DM Sans', 'Helvetica Neue', Arial, sans-serif" text-anchor="middle">
    <text x="360" y="260" font-size="56" letter-spacing="6">TTG</text>
    <text x="360" y="332" font-size="42" letter-spacing="3">UNIVERSITY</text>
    <text x="360" y="380" font-size="30" letter-spacing="4">ARTICLES</text>
  </g>
  <path d="M138 72h360" stroke="url(#glowGradient)" stroke-width="18" stroke-linecap="round" opacity="0.8" />
  <path d="M464 72v144" stroke="rgba(0,0,0,0.32)" stroke-width="12" stroke-linecap="round" opacity="0.5" />
  <path d="M128 720h384" stroke="rgba(0,0,0,0.22)" stroke-width="24" stroke-linecap="round" opacity="0.45" />
  <path d="M96 0h18v768h-18z" fill="url(#ribbonGradient)" />
  <path d="M105 0c12 32 18 64 18 96s-6 64-18 96c-12-32-18-64-18-96s6-64 18-96z" fill="#a05a1b" opacity="0.6" />
</svg>
