<svg width="640" height="640" viewBox="0 0 640 640" xmlns="http://www.w3.org/2000/svg" role="img" aria-labelledby="title desc">
  <title id="title">Instagram preview placeholder</title>
  <desc id="desc">Warm gradient background with Instagram glyph for The Tank Guide media card.</desc>
  <defs>
    <radialGradient id="grad" cx="50%" cy="35%" r="75%">
      <stop offset="0%" stop-color="#ffdf8c" />
      <stop offset="45%" stop-color="#ff7a7a" />
      <stop offset="100%" stop-color="#7a3bff" />
    </radialGradient>
  </defs>
  <rect x="0" y="0" width="640" height="640" fill="url(#grad)" rx="38" />
  <g fill="#ffffff" opacity="0.9">
    <path d="M415 140H225c-46.5 0-85 38.5-85 85v190c0 46.5 38.5 85 85 85h190c46.5 0 85-38.5 85-85V225c0-46.5-38.5-85-85-85zm55 275c0 30.4-24.6 55-55 55H225c-30.4 0-55-24.6-55-55V225c0-30.4 24.6-55 55-55h190c30.4 0 55 24.6 55 55v190zm-150-170c-49.7 0-90 40.3-90 90s40.3 90 90 90 90-40.3 90-90-40.3-90-90-90zm0 150c-33.1 0-60-26.9-60-60s26.9-60 60-60 60 26.9 60 60-26.9 60-60 60zm96-174c-11 0-20-9-20-20s9-20 20-20 20 9 20 20-9 20-20 20z" />
  </g>
  <text x="50%" y="88%" font-family="'Inter', sans-serif" font-size="46" fill="#fff7f0" text-anchor="middle" letter-spacing="4">INSTAGRAM</text>
</svg>
