<?xml version="1.0" encoding="UTF-8"?>
<svg id="Layer_1" xmlns="http://www.w3.org/2000/svg" version="1.1" viewBox="0 0 792 612">
  <!-- Generator: Adobe Illustrator 29.2.1, SVG Export Plug-In . SVG Version: 2.1.0 Build 116)  -->
  <defs>
    <style>
      .st0 {
        fill: #c3002b;
      }

      .st1 {
        fill: #8e9093;
      }

      .st2 {
        fill: #fff;
      }

      .st3 {
        stroke: #909194;
        stroke-miterlimit: 10;
        stroke-width: 2px;
      }
    </style>
  </defs>
  <g id="_x33_-A">
    <rect class="st3" x="188" y="244.63" width="416" height="122.75" rx="10" ry="10"/>
    <g>
      <g>
        <g>
          <path class="st1" d="M480.99,333.23l6.05,12.01h-3.36l-5.8-11.42h-10.84v11.42h-3.11v-31.5h13.65c5.59,0,10.16,4.49,10.16,10.04,0,4.33-2.86,8.02-6.76,9.45ZM477.59,316.64h-10.54v14.28h10.54c3.91,0,6.97-3.19,6.97-7.14s-3.07-7.14-6.97-7.14Z"/>
          <path class="st1" d="M512.32,340.33h-.08c-1.93,2.9-5.29,5.63-10.21,5.63-7.18,0-12.81-5.75-12.81-12.89s5.63-12.85,12.81-12.85c4.91,0,8.27,2.69,10.21,5.63h.08v-4.91h3.11v24.32h-3.11v-4.91ZM502.32,323.06c-5.54,0-9.91,4.45-9.91,10s4.37,10.04,9.91,10.04,10-4.45,10-10.04-4.49-10-10-10Z"/>
          <path class="st1" d="M542.09,340.33h-.08c-1.93,2.9-5.29,5.63-10.21,5.63-7.18,0-12.81-5.75-12.81-12.89s5.63-12.85,12.81-12.85c4.91,0,8.27,2.69,10.21,5.63h.08v-12.1h3.11v31.5h-3.11v-4.91ZM532.1,323.06c-5.54,0-9.91,4.45-9.91,10s4.37,10.04,9.91,10.04,10-4.45,10-10.04-4.49-10-10-10Z"/>
          <path class="st1" d="M551.16,313.02c1.18,0,2.14.97,2.14,2.14s-.97,2.14-2.14,2.14-2.14-.97-2.14-2.14.97-2.14,2.14-2.14ZM552.72,320.92v24.32h-3.11v-24.32h3.11Z"/>
          <path class="st1" d="M556.28,333.06c0-7.1,5.92-12.85,13.1-12.85s13.1,5.75,13.1,12.85-5.88,12.89-13.1,12.89-13.1-5.75-13.1-12.89ZM579.3,333.06c0-5.5-4.37-10-9.91-10s-9.91,4.49-9.91,10,4.45,10.04,9.91,10.04,9.91-4.49,9.91-10.04Z"/>
        </g>
        <g>
          <path class="st2" d="M334.16,310.2c2.04,0,3.73,1.69,3.73,3.73s-1.69,3.73-3.73,3.73-3.73-1.69-3.73-3.73,1.69-3.73,3.73-3.73ZM337.31,319.56v25.68h-6.3v-25.68h6.3Z"/>
          <path class="st2" d="M360.28,345.25v-13.88h-13.53v13.88h-6.3v-33.27h6.3v13.8h13.53v-13.8h6.3v33.27h-6.3Z"/>
          <path class="st2" d="M396.21,335.18h-20.72c.67,2.84,3.59,5.37,7.19,5.37,2.66,0,4.75-1.42,5.77-3.02h6.83c-1.82,5.19-6.88,8.47-12.6,8.47-7.67,0-13.93-5.86-13.93-13.62s6.3-13.57,14.02-13.57,13.8,5.99,13.8,13.57c0,.98-.13,1.82-.36,2.8ZM389.82,329.9c-.62-3.1-3.19-5.77-7.05-5.77s-6.57,2.66-7.19,5.77h14.24Z"/>
          <path class="st2" d="M420.29,341.12h-.09c-1.42,2.4-4.26,4.88-8.56,4.88-7.5,0-13.62-5.81-13.62-13.62s6.12-13.57,13.62-13.57c4.04,0,6.79,2.08,8.56,4.48h.09v-3.73h6.3v25.68h-6.3v-4.12ZM412.44,324.49c-4.35,0-7.85,3.59-7.85,7.9s3.51,7.94,7.85,7.94,7.85-3.59,7.85-7.94-3.46-7.9-7.85-7.9Z"/>
          <path class="st2" d="M429.46,319.56h6.3v3.55h.09c1.33-2.26,3.24-4.3,6.52-4.3h.62v6.39h-1.55c-3.02,0-5.46,2.35-5.68,5.32v14.73h-6.3v-25.68Z"/>
          <path class="st2" d="M445.16,324.62v-5.06h2.31v-5.81h6.3v5.81h4.39v5.06h-4.39v13.49c0,.89.71,1.55,1.51,1.55h2.88v5.59h-2.88c-4.61,0-7.81-2.93-7.81-7.59v-13.04h-2.31Z"/>
        </g>
      </g>
      <g>
        <path class="st2" d="M341.31,280.98h-10.02v-14.65h2.11v12.77h7.91v1.87Z"/>
        <path class="st2" d="M344.88,280.98h-2.11v-14.65h2.11v14.65Z"/>
        <path class="st2" d="M349.8,276.9c0,1.64,1.21,2.5,2.99,2.5s2.99-.86,2.99-2.5c0-4.26-7.91-1.04-7.91-6.82,0-2.44,2.19-4.08,4.92-4.08s4.88,1.64,4.88,4.08h-2.19c0-1.35-1.09-2.17-2.7-2.17s-2.69.82-2.69,2.17c0,3.79,7.91.7,7.91,6.82,0,2.71-2.3,4.41-5.21,4.41s-5.18-1.7-5.18-4.41h2.19Z"/>
        <path class="st2" d="M366.21,268.21v12.77h-2.11v-12.77h-4.63v-1.88h11.37v1.88h-4.63Z"/>
        <path class="st2" d="M383.78,279.11v1.87h-10.7v-14.65h10.7v1.88h-8.59v4.55h7.25v1.88h-7.25v4.47h8.59Z"/>
        <path class="st2" d="M397.82,280.98h-2.11l-7.19-10.94v10.94h-2.11v-14.65h2.11l7.19,10.96v-10.96h2.11v14.65Z"/>
        <path class="st2" d="M412.85,268.21v12.77h-2.11v-12.77h-4.63v-1.88h11.37v1.88h-4.63Z"/>
        <path class="st2" d="M426.19,281.31c-4.3,0-7.93-3.44-7.93-7.66s3.63-7.66,7.93-7.66,7.93,3.44,7.93,7.66-3.65,7.66-7.93,7.66ZM426.19,279.4c3.16,0,5.7-2.56,5.7-5.74s-2.54-5.74-5.7-5.74-5.7,2.56-5.7,5.74,2.54,5.74,5.7,5.74Z"/>
        <path class="st2" d="M448.67,268.21v12.77h-2.11v-12.77h-4.63v-1.88h11.37v1.88h-4.63Z"/>
        <path class="st2" d="M464.84,280.98v-6.35h-7.19v6.35h-2.11v-14.65h2.11v6.43h7.19v-6.43h2.11v14.65h-2.11Z"/>
        <path class="st2" d="M472.18,280.98h-2.11v-14.65h2.11v14.65Z"/>
        <path class="st2" d="M477.1,276.9c0,1.64,1.21,2.5,2.99,2.5s2.99-.86,2.99-2.5c0-4.26-7.91-1.04-7.91-6.82,0-2.44,2.19-4.08,4.92-4.08s4.88,1.64,4.88,4.08h-2.19c0-1.35-1.09-2.17-2.7-2.17s-2.69.82-2.69,2.17c0,3.79,7.91.7,7.91,6.82,0,2.71-2.3,4.41-5.21,4.41s-5.18-1.7-5.18-4.41h2.19Z"/>
        <path class="st2" d="M337.4,295.96h-4v4.94h-2.11v-14.67h6.11c2.85,0,5.21,2.17,5.21,4.86s-2.36,4.86-5.21,4.86ZM337.4,288.1h-4v5.98h4c1.68,0,2.99-1.31,2.99-2.99s-1.31-2.99-2.99-2.99Z"/>
        <path class="st2" d="M352.69,301.23c-4.3,0-7.93-3.44-7.93-7.66s3.63-7.66,7.93-7.66,7.93,3.44,7.93,7.66-3.65,7.66-7.93,7.66ZM352.69,299.32c3.16,0,5.7-2.56,5.7-5.74s-2.54-5.74-5.7-5.74-5.7,2.56-5.7,5.74,2.54,5.74,5.7,5.74Z"/>
        <path class="st2" d="M368.31,300.9h-5.06v-14.65h5.06c4.39,0,7.44,3.28,7.44,7.32s-3.05,7.32-7.44,7.32ZM368.31,288.12h-2.95v10.9h2.95c3.24,0,5.21-2.44,5.21-5.45s-1.97-5.45-5.21-5.45Z"/>
        <path class="st2" d="M385.71,299.32c2.34,0,4.32-1.47,5.16-3.57h2.25c-.9,3.16-3.95,5.49-7.4,5.49-4.24,0-7.81-3.44-7.81-7.66s3.57-7.66,7.81-7.66c3.46,0,6.5,2.32,7.4,5.49h-2.25c-.84-2.09-2.81-3.57-5.16-3.57-3.11,0-5.59,2.56-5.59,5.74s2.48,5.74,5.59,5.74Z"/>
        <path class="st2" d="M404.44,297.93h-6.23l-1.03,2.97h-2.3l5.41-14.65h2.11l5.41,14.65h-2.3l-1.06-2.97ZM398.87,296.05h4.92l-2.42-6.91h-.08l-2.42,6.91Z"/>
        <path class="st2" d="M411.84,296.82c0,1.64,1.21,2.5,2.99,2.5s2.99-.86,2.99-2.5c0-4.26-7.91-1.04-7.91-6.82,0-2.44,2.19-4.08,4.92-4.08s4.88,1.64,4.88,4.08h-2.19c0-1.35-1.09-2.17-2.7-2.17s-2.69.82-2.69,2.17c0,3.79,7.91.7,7.91,6.82,0,2.71-2.3,4.41-5.21,4.41s-5.18-1.7-5.18-4.41h2.19Z"/>
        <path class="st2" d="M428.24,288.12v12.77h-2.11v-12.77h-4.63v-1.88h11.37v1.88h-4.63Z"/>
        <path class="st2" d="M448.61,301.23c-4.3,0-7.93-3.44-7.93-7.66s3.63-7.66,7.93-7.66,7.93,3.44,7.93,7.66-3.65,7.66-7.93,7.66ZM448.61,299.32c3.16,0,5.7-2.56,5.7-5.74s-2.54-5.74-5.7-5.74-5.7,2.56-5.7,5.74,2.54,5.74,5.7,5.74Z"/>
        <path class="st2" d="M470.58,300.9h-2.11l-7.19-10.94v10.94h-2.11v-14.65h2.11l7.19,10.96v-10.96h2.11v14.65Z"/>
      </g>
      <path class="st0" d="M287.12,266.38c-10.07,0-19.07,5.34-24.28,13.13-5.21-7.79-14.21-13.13-24.28-13.13-16.05,0-29.05,13-29.05,29.05,0,10.18,6.45,17.52,13.19,24.31l26.34,24.9c1.38,1.3,3.65.33,3.65-1.57v-19.4c0-5.61,4.55-10.16,10.16-10.17,5.61,0,10.16,4.56,10.16,10.17v19.4c0,1.9,2.27,2.88,3.65,1.57l26.34-24.9c6.74-6.79,13.19-14.13,13.19-24.31,0-16.05-13-29.05-29.05-29.05ZM236.47,317.84c-.4.45-.95.68-1.51.68-.48,0-.95-.17-1.34-.5-8.67-7.69-13.07-15.71-13.07-23.85v-.1c0-6.99,4.27-14.95,9.93-18.5.94-.59,2.19-.31,2.78.64.59.94.31,2.18-.63,2.77-4.51,2.83-8.04,9.46-8.04,15.09v.1c0,6.94,3.94,13.95,11.72,20.84.83.74.91,2.01.17,2.84ZM249.42,310.37c-.37.66-1.05,1.03-1.76,1.03-.34,0-.67-.08-.98-.26-5.88-3.29-9.84-9.76-9.87-16.11v-.06c.02-6.04,3.35-11.53,8.71-14.35.98-.52,2.2-.14,2.72.84.52.98.14,2.2-.84,2.72-4.03,2.12-6.54,6.26-6.55,10.81.01,4.95,3.15,10.02,7.81,12.63.97.54,1.32,1.77.77,2.74ZM262.84,305.22c-4.82,0-8.73-3.91-8.73-8.74s3.91-8.73,8.73-8.74c4.82,0,8.73,3.91,8.73,8.74s-3.91,8.73-8.73,8.74ZM279,311.14c-.31.17-.65.26-.98.26-.7,0-1.39-.37-1.76-1.03-.54-.97-.2-2.2.77-2.74,4.66-2.61,7.79-7.68,7.81-12.63-.01-4.55-2.52-8.69-6.55-10.81-.99-.52-1.36-1.73-.84-2.72.52-.98,1.74-1.36,2.72-.84,5.35,2.81,8.68,8.31,8.71,14.35v.06c-.03,6.35-3.99,12.82-9.87,16.11ZM305.13,294.15c0,8.14-4.4,16.16-13.07,23.85-.38.34-.86.5-1.34.5-.55,0-1.11-.23-1.51-.68-.74-.83-.66-2.1.17-2.84,7.78-6.89,11.72-13.9,11.72-20.84v-.1c0-5.63-3.53-12.26-8.04-15.09-.94-.59-1.23-1.83-.63-2.77.59-.94,1.83-1.23,2.78-.64,5.66,3.55,9.93,11.51,9.93,18.5v.1Z"/>
    </g>
  </g>
</svg>