<svg width="640" height="640" viewBox="0 0 640 640" xmlns="http://www.w3.org/2000/svg" role="img" aria-labelledby="title desc">
  <title id="title">TikTok preview placeholder</title>
  <desc id="desc">Gradient background with TikTok icon accent for The Tank Guide media card.</desc>
  <defs>
    <linearGradient id="g" x1="0" x2="1" y1="0" y2="1">
      <stop offset="0%" stop-color="#111b3d" />
      <stop offset="100%" stop-color="#0a95ff" />
    </linearGradient>
  </defs>
  <rect x="0" y="0" width="640" height="640" fill="url(#g)" rx="32" />
  <g fill="#ffffff" opacity="0.88">
    <path d="M423.9 176.5c18.9 12.4 40.9 19.7 64.8 19.7v72.3c-23.9 0-46-7.2-64.9-19.7v130.5c0 82.5-66.9 149.4-149.4 149.4s-149.4-66.9-149.4-149.4 66.9-149.4 149.4-149.4c9.3 0 18.4.9 27.1 2.6v76.7c-8.6-3-17.9-4.6-27.5-4.6-45.6 0-82.6 37-82.6 82.6s37 82.6 82.6 82.6 82.6-37 82.6-82.6V176.5h66.3z" />
  </g>
  <text x="50%" y="88%" font-family="'Inter', sans-serif" font-size="46" fill="#e9f5ff" text-anchor="middle" letter-spacing="4">TIKTOK</text>
</svg>
