<svg xmlns="http://www.w3.org/2000/svg" viewBox="0 0 24 24">
  <path
    d="M16 7.4c0-3-2-5-5-5-2.4 0-4.5 1.4-5.6 3.8l2.1.9c.5-1.4 1.6-2.2 3.1-2.2 1.7 0 2.8 1.1 2.8 3v1.3h-.4C8.6 9.2 5.6 10.8 5.6 14c0 2.6 1.9 4.3 4.5 4.3 1.6 0 3-.7 3.9-2.1v1.8h2zM13 14c-.7 1.1-1.6 1.6-2.8 1.6-1.4 0-2.3-.9-2.3-2.1 0-2 2.2-2.9 5.3-2.9H13z"
    fill="currentColor"
  />
  <path
    d="M3.8 18.7c3.3 2.2 6.9 3.2 10.6 3.2 3.2 0 6.4-.6 9.3-1.9.5-.2.8.3.5.7-1 1.3-2 2.2-3.1 2.9-.3.2-.6 0-.5-.3l.3-1.2c-1.4.6-2.8 1-4.3 1.2-4.8.8-9.3.1-13.4-2.4-.4-.2-.3-.8.1-1Z"
    fill="currentColor"
  />
  <path
    d="M23 19.7l1.9.5-.5 1.9c-.1.4-.5.4-.7.1l-1.1-1.6c-.2-.3 0-.7.4-.9z"
    fill="currentColor"
  />
</svg>
