<svg xmlns="http://www.w3.org/2000/svg" viewBox="0 0 24 24">
  <g fill="none" stroke="currentColor" stroke-linecap="round" stroke-linejoin="round">
    <path d="M4 17.2c2.3 1.8 5.2 2.8 8 2.8s5.6-.7 7.9-2.1" stroke-width="1.5"/>
    <path d="M19.1 18.2l3 .8-.8 3" stroke-width="1.5"/>
  </g>
  <path d="M15.8 9.9c0-2.4-1.7-4-3.9-4-1.5 0-2.7.6-3.6 1.8l1.5 1.4c.6-.8 1.2-1.1 2-1.1 1 0 1.7.7 1.7 1.9v.5h-.7c-2.9 0-4.8 1.2-4.8 3.4 0 1.7 1.3 2.9 3 2.9 1.2 0 2.1-.5 2.7-1.3v1.1h2.1zm-2.9 4.2c-.3.6-.8 1-1.5 1s-1.2-.5-1.2-1.1c0-1 1-1.5 2.7-1.5h.3z" fill="currentColor"/>
</svg>
